<?xml version="1.0" standalone="no"?>
<!DOCTYPE svg PUBLIC "-//W3C//DTD SVG 20010904//EN"
 "http://www.w3.org/TR/2001/REC-SVG-20010904/DTD/svg10.dtd">
<svg version="1.0" xmlns="http://www.w3.org/2000/svg"
 width="1500.000000pt" height="500.000000pt" viewBox="0 0 1500.000000 500.000000"
 preserveAspectRatio="xMidYMid meet">

<g transform="translate(0.000000,500.000000) scale(0.100000,-0.100000)"
fill="#000000" stroke="none">
<path d="M0 2500 l0 -2500 7500 0 7500 0 0 2500 0 2500 -7500 0 -7500 0 0
-2500z m7732 1149 c116 -67 270 -156 342 -198 l131 -76 1 -403 c0 -353 -2
-404 -15 -415 -25 -22 -680 -397 -692 -397 -13 0 -668 377 -689 397 -13 12
-15 72 -16 414 -1 395 0 401 20 414 107 69 684 394 694 390 7 -3 108 -59 224
-126z m858 -1905 l0 -65 22 15 c35 25 94 20 123 -9 23 -23 25 -31 25 -130 0
-98 -1 -105 -20 -105 -18 0 -20 7 -20 83 0 103 -6 126 -36 133 -69 17 -94 -21
-94 -142 0 -67 -2 -74 -20 -74 -19 0 -20 7 -20 180 0 173 1 180 20 180 18 0
20 -7 20 -66z m-2725 36 c22 -8 24 -13 15 -30 -9 -16 -15 -18 -36 -10 -45 17
-82 12 -115 -18 -27 -24 -33 -37 -37 -85 -9 -107 36 -155 134 -143 44 5 52 4
50 -10 -4 -26 -35 -37 -97 -32 -48 3 -65 10 -89 33 -81 78 -61 249 34 291 37
16 104 18 141 4z m2610 0 c22 -8 24 -13 15 -30 -9 -16 -15 -18 -36 -10 -45 17
-82 12 -115 -18 -27 -24 -33 -37 -37 -85 -9 -107 36 -155 134 -143 44 5 52 4
50 -10 -4 -26 -35 -37 -97 -32 -48 3 -65 10 -89 33 -81 78 -61 249 34 291 37
16 104 18 141 4z m755 -35 l0 -35 50 0 c42 0 50 -3 50 -19 0 -16 -7 -19 -47
-17 l-48 1 0 -90 0 -90 48 -3 c39 -3 48 -6 45 -20 -5 -26 -88 -29 -119 -3 -21
17 -24 29 -29 113 -5 90 -6 93 -29 93 -37 0 -37 23 1 33 25 6 35 16 42 40 12
44 36 42 36 -3z m-3250 -126 c0 -108 9 -129 53 -129 18 0 38 4 45 8 19 13 32
70 32 144 0 61 2 68 20 68 19 0 20 -7 20 -130 0 -123 -1 -130 -20 -130 -11 0
-20 7 -20 16 0 14 -2 14 -22 0 -32 -23 -90 -20 -122 5 -25 20 -26 24 -26 130
0 102 1 109 20 109 19 0 20 -7 20 -91z m310 66 l0 -24 26 24 c20 19 38 25 70
25 45 0 58 -9 48 -33 -4 -11 -16 -13 -48 -10 -35 4 -48 1 -65 -16 -18 -18 -21
-33 -21 -111 0 -89 0 -90 -25 -90 l-25 0 0 130 c0 123 1 130 20 130 15 0 20
-7 20 -25z m290 0 l0 -24 26 24 c20 19 38 25 70 25 45 0 58 -9 48 -33 -4 -11
-16 -13 -48 -10 -35 4 -48 1 -65 -16 -18 -18 -21 -33 -21 -111 0 -89 0 -90
-25 -90 l-25 0 0 130 c0 123 1 130 20 130 15 0 20 -7 20 -25z m410 -2 c23 -20
33 -40 37 -70 l6 -43 -92 0 c-84 0 -91 -1 -91 -20 0 -11 10 -30 21 -41 19 -19
30 -21 80 -16 52 4 59 3 59 -13 0 -31 -98 -42 -149 -15 -76 39 -80 181 -7 226
46 28 99 25 136 -8z m146 12 c5 -13 8 -13 27 0 34 24 94 19 122 -10 23 -23 25
-31 25 -130 0 -98 -1 -105 -20 -105 -18 0 -20 7 -20 83 0 103 -6 126 -36 133
-69 17 -94 -21 -94 -142 0 -67 -2 -74 -20 -74 -19 0 -20 7 -20 130 0 110 2
130 15 130 9 0 18 -7 21 -15z m459 3 c3 -3 3 -12 -1 -21 -4 -12 -16 -14 -58
-10 -72 7 -96 -15 -96 -87 0 -74 24 -94 101 -87 46 4 59 2 59 -9 0 -34 -97
-46 -150 -19 -79 41 -80 186 -2 230 26 15 133 17 147 3z m118 -5 c3 -10 21
-58 40 -107 l34 -88 33 95 c40 116 42 120 68 115 19 -3 17 -12 -41 -166 -71
-189 -88 -212 -146 -212 -34 0 -41 3 -41 20 0 16 7 20 35 20 28 0 37 5 50 30
8 16 15 36 15 45 0 9 -22 71 -50 137 -27 66 -50 122 -50 124 0 14 49 1 53 -13z
m1301 -4 c25 -20 26 -24 26 -130 0 -91 -2 -109 -15 -109 -9 0 -18 7 -21 15 -5
13 -8 13 -27 0 -34 -24 -94 -19 -122 10 -61 60 -2 135 105 135 42 0 47 8 29
42 -9 17 -19 19 -71 16 -43 -2 -62 1 -65 10 -12 34 120 44 161 11z"/>
<path d="M7180 3525 l-315 -183 0 -373 0 -373 317 -183 317 -183 318 183 318
183 0 373 0 373 -235 135 c-129 74 -272 157 -318 184 -46 27 -84 49 -85 48 -1
0 -144 -83 -317 -184z m397 -250 c55 -31 63 -40 63 -65 0 -25 8 -34 53 -59 97
-55 97 -54 97 -127 0 -62 1 -66 30 -82 30 -17 30 -18 28 -92 l-3 -75 -67 -38
c-51 -30 -71 -36 -85 -29 -14 8 -37 -1 -105 -40 l-88 -49 -87 49 c-69 39 -92
48 -106 40 -14 -7 -34 -1 -85 29 l-67 38 -3 72 c-3 69 -2 72 28 93 28 20 30
26 30 84 0 72 1 73 89 122 47 26 57 36 61 64 4 28 14 38 65 66 33 19 66 34 74
34 8 0 43 -16 78 -35z"/>
<path d="M7457 3256 l-38 -24 34 -21 c19 -11 40 -21 47 -21 7 0 28 10 47 21
l34 21 -38 24 c-21 13 -40 23 -43 23 -3 0 -22 -10 -43 -23z"/>
<path d="M7400 3153 c0 -46 2 -49 40 -70 l40 -21 0 49 c0 47 -2 49 -40 69
l-40 20 0 -47z"/>
<path d="M7558 3179 c-35 -18 -38 -23 -38 -64 0 -25 2 -45 5 -45 2 0 20 8 40
17 33 16 35 20 35 65 0 26 -1 48 -2 48 -2 -1 -20 -10 -40 -21z"/>
<path d="M7303 3110 c-53 -30 -53 -31 -53 -81 0 -47 1 -49 20 -39 17 9 33 4
90 -27 l70 -37 0 -73 0 -74 -36 -21 -35 -21 30 -18 c16 -10 48 -27 70 -39 l41
-20 41 20 c22 12 54 29 70 39 l30 18 -35 21 c-36 21 -36 22 -36 91 0 77 4 83
98 130 33 17 47 19 62 11 19 -10 20 -7 20 39 0 50 0 51 -52 81 l-53 30 -5 -26
c-4 -20 -21 -35 -72 -63 l-68 -36 -67 36 c-52 28 -69 43 -73 63 l-5 26 -52
-30z"/>
<path d="M7242 2938 l-33 -21 40 -24 41 -24 41 24 40 24 -34 22 c-43 26 -54
26 -95 -1z"/>
<path d="M7662 2938 l-33 -21 40 -24 41 -24 41 24 40 24 -34 22 c-43 26 -54
26 -95 -1z"/>
<path d="M7190 2835 c0 -42 2 -46 40 -65 l40 -20 0 48 c0 45 -2 49 -35 65 -20
9 -38 17 -40 17 -3 0 -5 -20 -5 -45z"/>
<path d="M7343 2863 c-30 -15 -33 -20 -33 -65 l0 -48 40 20 c38 19 40 23 40
65 0 50 -1 51 -47 28z"/>
<path d="M7610 2835 c0 -42 2 -46 40 -65 l40 -20 0 48 c0 45 -2 49 -35 65 -20
9 -38 17 -40 17 -3 0 -5 -20 -5 -45z"/>
<path d="M7763 2863 c-30 -15 -33 -20 -33 -65 l0 -48 40 20 c38 19 40 23 40
65 0 50 -1 51 -47 28z"/>
<path d="M6867 1652 c-31 -34 -21 -42 48 -42 50 0 65 3 65 14 0 43 -82 63
-113 28z"/>
<path d="M8910 1567 c-18 -9 -25 -21 -25 -42 0 -27 4 -30 35 -33 44 -4 68 14
76 56 6 31 5 32 -27 32 -19 0 -45 -6 -59 -13z"/>
</g>
</svg>
